<?xml version="1.0" encoding="UTF-8" standalone="no"?>
<svg
   xmlns:dc="http://purl.org/dc/elements/1.1/"
   xmlns:cc="http://creativecommons.org/ns#"
   xmlns:rdf="http://www.w3.org/1999/02/22-rdf-syntax-ns#"
   xmlns:svg="http://www.w3.org/2000/svg"
   xmlns="http://www.w3.org/2000/svg"
   xmlns:sodipodi="http://sodipodi.sourceforge.net/DTD/sodipodi-0.dtd"
   xmlns:inkscape="http://www.inkscape.org/namespaces/inkscape"
   width="32"
   height="32"
   id="svg6044"
   version="1.1"
   inkscape:version="1.0.1 (3bc2e813f5, 2020-09-07)"
   sodipodi:docname="platform-macos.svg"
   style="display:inline"
   inkscape:export-filename="D:\Projects\Xaymar\obs-streamfx-pages\assets\platforms\platform-macos.png"
   inkscape:export-xdpi="96"
   inkscape:export-ydpi="96">
  <defs
     id="defs6046" />
  <sodipodi:namedview
     id="base"
     pagecolor="#ffffff"
     bordercolor="#666666"
     borderopacity="1.0"
     inkscape:pageopacity="0.0"
     inkscape:pageshadow="2"
     inkscape:zoom="11.313708"
     inkscape:cx="24.195295"
     inkscape:cy="5.4177667"
     inkscape:current-layer="layer1"
     showgrid="true"
     inkscape:document-units="px"
     inkscape:grid-bbox="true"
     inkscape:window-width="3440"
     inkscape:window-height="1417"
     inkscape:window-x="2552"
     inkscape:window-y="-8"
     inkscape:window-maximized="1"
     fit-margin-top="0"
     fit-margin-left="0"
     fit-margin-right="0"
     fit-margin-bottom="0"
     borderlayer="true"
     inkscape:snap-global="false"
     showguides="true"
     inkscape:guide-bbox="true"
     inkscape:object-paths="true"
     inkscape:snap-smooth-nodes="true"
     inkscape:object-nodes="true"
     inkscape:snap-intersection-paths="true"
     inkscape:snap-grids="false"
     inkscape:snap-page="true"
     inkscape:document-rotation="0" />
  <metadata
     id="metadata6049">
    <rdf:RDF>
      <cc:Work
         rdf:about="">
        <dc:format>image/svg+xml</dc:format>
        <dc:type
           rdf:resource="http://purl.org/dc/dcmitype/StillImage" />
        <dc:title />
      </cc:Work>
    </rdf:RDF>
  </metadata>
  <g
     id="layer1"
     inkscape:label="Layer 1"
     inkscape:groupmode="layer"
     style="display:inline">
    <path
       style="fill:#808080;fill-opacity:1;stroke:#000000;stroke-opacity:1"
       d="M 10.944914,30.25634 C 9.8390551,29.886518 8.6591215,28.868953 7.4359284,27.230221 5.5515947,24.705749 4.440183,22.110771 4.0153406,19.243668 3.8732614,18.284828 3.8180213,16.439831 3.9059729,15.590825 4.1296397,13.431743 4.8536092,11.73156 6.1239544,10.382079 7.2277888,9.2094806 8.6402783,8.4627253 10.224911,8.2139849 c 1.136747,-0.1784357 2.193733,-0.15027 3.104767,0.082733 0.223506,0.057163 0.853311,0.2829632 1.399567,0.5017784 0.546255,0.2188147 1.12228,0.4255296 1.280054,0.4593661 0.43682,0.093681 0.979627,0.030519 1.579103,-0.1837478 0.287961,-0.1029243 0.829764,-0.2963452 1.204009,-0.4298245 1.042684,-0.371888 1.543552,-0.4618652 2.757101,-0.4952924 0.828494,-0.022822 1.15858,-0.010076 1.625242,0.062754 1.58355,0.2471376 2.88435,0.9112463 4.035907,2.0604858 0.315057,0.314424 0.572831,0.605799 0.572831,0.647501 0,0.0417 -0.341765,0.408981 -0.759477,0.816174 -0.913722,0.890713 -1.165348,1.18226 -1.552253,1.798528 -0.580001,0.923836 -0.83668,1.844701 -0.841298,3.018252 -0.0042,1.079902 0.177529,1.887441 0.623733,2.770905 0.535005,1.059285 1.595166,2.102613 2.87845,2.832748 0.215974,0.12288 0.402867,0.249962 0.415316,0.282405 0.08931,0.232735 -0.855927,2.367573 -1.534518,3.465748 -1.051897,1.702301 -2.455062,3.219663 -3.633645,3.929366 -0.605243,0.364457 -0.962777,0.47987 -1.574502,0.50825 -0.664333,0.03082 -1.052,-0.05463 -2.361165,-0.520439 -0.556846,-0.19813 -1.16831,-0.398025 -1.358809,-0.44421 -1.253539,-0.303911 -2.242938,-0.22576 -3.69674,0.291998 -0.413983,0.147436 -0.992485,0.353466 -1.285561,0.457845 -0.481774,0.171583 -0.596733,0.191566 -1.19895,0.208411 -0.540742,0.01513 -0.721233,2.13e-4 -0.959159,-0.07938 z M 16.359548,8.6100911 c -0.143217,-0.024003 -0.287091,-0.070457 -0.31972,-0.1032284 -0.03883,-0.039004 -0.05758,-0.3392638 -0.05428,-0.8692837 0.0059,-0.9504238 0.09407,-1.3529995 0.469974,-2.1465401 0.320117,-0.6757733 0.705568,-1.2209502 1.307916,-1.8498984 1.11031,-1.1593433 2.24832,-1.7780032 3.700035,-2.0114617 0.561207,-0.090251 0.565058,-0.084755 0.565058,0.8063519 0,0.9792418 -0.214081,1.9249253 -0.61524,2.7177731 -0.443566,0.8766612 -1.419082,1.9928683 -2.22315,2.5437792 -0.539152,0.3694032 -1.288248,0.7201647 -1.833069,0.8583289 -0.461594,0.117058 -0.58302,0.1236533 -0.997528,0.054179 z"
       id="path3246"
       inkscape:connector-curvature="0" />
  </g>
</svg>
