<?xml version="1.0" encoding="UTF-8" standalone="no"?>
<svg
   xmlns:dc="http://purl.org/dc/elements/1.1/"
   xmlns:cc="http://creativecommons.org/ns#"
   xmlns:rdf="http://www.w3.org/1999/02/22-rdf-syntax-ns#"
   xmlns:svg="http://www.w3.org/2000/svg"
   xmlns="http://www.w3.org/2000/svg"
   xmlns:sodipodi="http://sodipodi.sourceforge.net/DTD/sodipodi-0.dtd"
   xmlns:inkscape="http://www.inkscape.org/namespaces/inkscape"
   width="32"
   height="32"
   id="svg6044"
   version="1.1"
   inkscape:version="1.0.1 (3bc2e813f5, 2020-09-07)"
   sodipodi:docname="platform-linux.svg"
   style="display:inline"
   inkscape:export-filename="D:\Projects\Xaymar\obs-streamfx-pages\assets\platforms\platform-linux.png"
   inkscape:export-xdpi="96"
   inkscape:export-ydpi="96">
  <defs
     id="defs6046" />
  <sodipodi:namedview
     id="base"
     pagecolor="#ffffff"
     bordercolor="#666666"
     borderopacity="1.0"
     inkscape:pageopacity="0.0"
     inkscape:pageshadow="2"
     inkscape:zoom="32"
     inkscape:cx="8.2099742"
     inkscape:cy="17.083309"
     inkscape:current-layer="layer1"
     showgrid="true"
     inkscape:document-units="px"
     inkscape:grid-bbox="true"
     inkscape:window-width="3440"
     inkscape:window-height="1417"
     inkscape:window-x="2552"
     inkscape:window-y="-8"
     inkscape:window-maximized="1"
     fit-margin-top="0"
     fit-margin-left="0"
     fit-margin-right="0"
     fit-margin-bottom="0"
     borderlayer="true"
     inkscape:snap-global="false"
     showguides="true"
     inkscape:guide-bbox="true"
     inkscape:object-paths="true"
     inkscape:snap-smooth-nodes="true"
     inkscape:object-nodes="true"
     inkscape:snap-intersection-paths="true"
     inkscape:snap-grids="false"
     inkscape:document-rotation="0" />
  <metadata
     id="metadata6049">
    <rdf:RDF>
      <cc:Work
         rdf:about="">
        <dc:format>image/svg+xml</dc:format>
        <dc:type
           rdf:resource="http://purl.org/dc/dcmitype/StillImage" />
        <dc:title />
      </cc:Work>
    </rdf:RDF>
  </metadata>
  <g
     id="layer1"
     inkscape:label="Layer 1"
     inkscape:groupmode="layer"
     style="display:inline">
    <path
       style="fill:#000000;fill-opacity:1;stroke:none;stroke-width:0.5;stroke-miterlimit:4;stroke-dasharray:none;stroke-opacity:0.997059;paint-order:markers stroke fill"
       d="m 13.96517,6.321257 c -0.409615,0.112001 -0.466405,0.899089 -0.28125,1.28125 0.199324,0.411407 0.344268,0.607553 0.46875,0.71875 0.249413,-0.198402 0.474848,-0.403711 0.75,-0.5625 2.95e-4,-0.140262 0.0053,-0.288624 0,-0.4375 -0.02926,-0.819001 -0.499556,-1.119747 -0.9375,-1 z"
       id="path4032"
       inkscape:connector-curvature="0" />
    <path
       style="fill:#000000;fill-opacity:1;stroke:none;stroke-width:0.5;stroke-miterlimit:4;stroke-dasharray:none;stroke-opacity:0.997059;paint-order:markers stroke fill"
       d="m 18.27767,6.258757 c -0.393189,-0.04582 -0.85925,0.252004 -0.875,0.8125 -0.009,0.321085 -0.01287,0.575574 0.09375,0.78125 0.262705,0.111826 0.520634,0.225184 0.78125,0.34375 0.364119,-0.07459 0.732938,-0.345682 0.75,-0.75 0.03448,-0.817013 -0.281591,-1.132918 -0.75,-1.1875 z"
       id="path4034"
       inkscape:connector-curvature="0" />
    <path
       style="fill:#f7c700;fill-opacity:1;stroke:none;stroke-width:0.5;stroke-miterlimit:4;stroke-dasharray:none;stroke-opacity:0.997059;paint-order:markers stroke fill"
       d="m 16.09017,7.665007 c -0.204917,-0.01301 -0.4368,0.03187 -0.8125,0.21875 -0.565901,0.28149 -1.157583,0.776809 -1.59375,1.1875 -0.1082,0.10188 -0.190175,0.265876 -0.21875,0.40625 -0.02858,0.140374 -0.01091,0.222529 0.0625,0.28125 0.05429,0.04342 0.04977,0.04611 0.0625,0.0625 0.01273,0.01639 0.01789,0.04374 0.03125,0.0625 0.01505,0.01466 0.01565,0.04746 0.03125,0.0625 0.01654,0.02122 0.04026,0.03072 0.0625,0.0625 0.303058,0.283947 0.711831,0.591828 1.375,0.65625 0.834356,0.08105 2.088305,-0.254191 4,-1.53125 0.01018,-0.0027 0.02107,-0.0027 0.03125,0 0.01018,-0.0027 0.02107,-0.0027 0.03125,0 0.0027,0.01018 0.0027,0.02107 0,0.03125 0.01018,-0.0027 0.02107,-0.0027 0.03125,0 0.0027,0.01018 0.0027,0.02107 0,0.03125 0.0027,0.01018 0.0027,0.02107 0,0.03125 -0.01018,0.0027 -0.02107,0.0027 -0.03125,0 0.0027,0.01018 0.0027,0.02107 0,0.03125 -1.924242,1.285441 -3.187871,1.58496 -4.0625,1.5 -0.437314,-0.04248 -0.76631,-0.173959 -1.03125,-0.34375 0.0059,0.0075 -0.0059,0.02365 0,0.03125 0.267096,0.3443 0.630345,0.780994 1.0625,1.125 0.135287,0.107692 0.527978,0.155478 0.96875,0.09375 0.440772,-0.06173 0.929639,-0.232605 1.21875,-0.4375 0.618811,-0.438554 1.055719,-0.619872 1.53125,-0.9375 0.170647,-0.113983 0.328836,-0.220542 0.4375,-0.34375 0.108664,-0.123208 0.183602,-0.239516 0.1875,-0.46875 0.0035,-0.203602 0.0014,-0.285087 -0.03125,-0.34375 -0.03263,-0.05866 -0.158236,-0.163092 -0.5,-0.3125 -0.70477,-0.308103 -1.426175,-0.676801 -2.125,-0.9375 -0.277952,-0.103691 -0.513914,-0.205744 -0.71875,-0.21875 z"
       id="path4079"
       inkscape:connector-curvature="0" />
    <path
       style="fill:#000000;fill-opacity:1;stroke:none;stroke-width:0.5;stroke-miterlimit:4;stroke-dasharray:none;stroke-opacity:0.997059;paint-order:markers stroke fill"
       d="m 13.29806,28.203387 c 0.726562,0.6875 1.937722,0.665204 2.94836,0.625683 2.267039,-0.08865 3.714044,-1.227105 5.260919,-2.71148 0,0.359375 -0.04705,1.254854 -0.266133,2.296486 -0.281481,1.338291 -0.15839,1.908035 -0.09589,2.26741 -0.648438,-0.3125 -0.771174,-0.300474 -1.586394,-0.297729 -1.111518,0.0037 -2.182365,-0.01335 -3.265625,0 -0.915698,0.01129 -1.655051,0.06143 -2.694113,0.537989 0.710937,-1.148437 0.378563,-1.796484 -0.301124,-2.718359 z"
       id="path4048"
       inkscape:connector-curvature="0"
       sodipodi:nodetypes="cscscsscc" />
    <path
       style="fill:#000000;fill-opacity:1;stroke:none;stroke-width:0.5;stroke-miterlimit:4;stroke-dasharray:none;stroke-opacity:0.997059;paint-order:markers stroke fill"
       d="m 16.55892,0.696257 c -0.715868,0.03393 -1.373613,0.189836 -1.84375,0.40625 -1.141178,0.525306 -2.04107,1.256639 -2.21875,2.875 -0.137672,1.253957 0.06855,2.645009 0.09375,3.90625 0.0495,2.478193 0.163934,2.89401 0.15625,3.125 -0.01666,0.500689 -2.433832,3.356319 -2.8124988,4.28125 -0.43826,1.070493 -0.908831,2.049944 -1.3125,3.21875 -0.181744,0.526231 -0.45967,0.993715 -0.75,1.46875 -0.16832,0.275403 -0.487858,0.407433 -0.46875,0.9375 0.01352,0.374901 0.0513,0.750391 0.03125,1.125 -0.0108,0.201886 0.15625,0.375 0.15625,0.375 -0.04321,-0.05282 0.489182,-0.640823 0.9375,-0.53125 0.771411,0.18854 1.439773,1.066225 1.40625,1.0625 0,0 -0.415511,-2.408219 0.6874998,-4.84375 0.479643,-1.059091 1.007583,-1.95854 1.249999,-3.03125 0.189778,-0.839783 0.790296,-1.796225 0.9375,-1.96875 0.547514,-0.641694 0.625507,-0.988464 0.59375,-1.75 -0.0091,-0.219108 0.125,-1.09375 0.125,-1.09375 0,0 -0.09743,-0.213557 -0.1875,-0.28125 C 13.068543,9.773368 13.133459,9.379932 13.33009,9.05294 13.436936,8.875258 13.764816,8.608087 13.764816,8.608087 13.55081,8.257334 13.165235,7.839652 13.234572,6.409272 c 0.02761,-0.56951 0.35625,-1.311269 1.168486,-1.203625 0.37615,0.04985 0.854392,0.635829 0.975528,1.317339 0.05763,0.324221 0.05341,0.986464 0.05341,0.986464 0.487915,-0.198592 1.011865,-0.0984 1.416745,0.07666 0,0 -0.284403,-0.699008 -0.158,-1.29583 0.08213,-0.387767 0.4819,-0.902784 1.243373,-1.184764 0.402942,-0.149212 0.982146,-0.09926 1.20029,0.270963 0.217308,0.368805 0.407789,0.755688 0.558919,1.156187 0.05621,0.148951 0.1347,0.301066 0.128026,0.460129 -0.01476,0.351846 -0.02109,0.668721 -0.203431,1.012556 -0.114199,0.215345 -0.419256,0.599132 -0.419256,0.599132 0,0 0.591737,0.236574 0.550217,0.706149 -0.0273,0.308761 0.01317,0.533997 -0.283705,0.885559 0.203125,0.125 0.484353,0.851144 1,2.031251 0.361009,0.826203 0.591883,1.670756 0.90625,2.5 0.310104,0.817997 0.890586,1.515077 1.1875,2.312499 0.933094,2.506013 0.450421,5.411304 0.28125,5.53125 h 0.34375 c -0.0027,-0.01018 -0.0027,-0.02107 0,-0.03125 0.284772,-0.375379 0.59966,-0.585767 0.9375,-0.71875 0.913617,-1.425104 0.989104,-2.776825 0.625,-3.90625 -0.364104,-1.129425 -1.188244,-2.020029 -2.1875,-2.531249 -0.0027,-0.01018 -0.0027,-0.02107 0,-0.03125 -0.01018,0.0027 -0.02107,0.0027 -0.03125,0 -0.0027,-0.01018 -0.0027,-0.02107 0,-0.03125 -0.0027,-0.01018 -0.0027,-0.02107 0,-0.03125 0.006,-0.01385 0.0174,-0.02525 0.03125,-0.03125 0.01018,-0.0027 0.02107,-0.0027 0.03125,0 0.01018,-0.0027 0.02107,-0.0027 0.03125,0 1.026001,0.524902 1.906326,1.430764 2.28125,2.593749 0.371671,1.152897 0.374552,2.470148 -0.53125,3.90625 0.304871,-0.07773 0.632874,-0.130507 0.9375,-0.09375 0.364694,0.044 0.673028,0.174415 0.9375,0.3125 0.264472,0.138085 0.4808,0.304291 0.5625,0.46875 0.05156,0.103779 -0.105978,0.306751 -0.25,0.1875 -0.104848,-0.08682 -0.248969,-0.306432 -0.5,-0.4375 -0.251031,-0.131067 -0.52564,-0.27035 -0.875,-0.3125 -0.698721,-0.08431 -1.328721,-0.04254 -1.90625,0.71875 0.0027,0.01018 0.0027,0.02107 0,0.03125 -0.01018,0.0027 -0.02107,0.0027 -0.03125,0 -8.61e-4,0.0026 -0.0304,-0.0026 -0.03125,0 -0.338977,1.034954 0.194543,1.718837 0.875,1.90625 1.784492,0.49149 2.7548,-1.407844 2.8125,-1.625 l 0.375,0.03125 c 0.34375,-0.671875 0.543985,-1.923375 0.34375,-2.875 -0.224489,-1.066892 -0.447942,-2.004479 -0.875,-3.0625 -0.460045,-1.139674 -0.784569,-1.989887 -1.906254,-3.156189 -0.714994,-0.743434 -1.260812,-1.775031 -1.6875,-2.59375 -0.204817,-0.392998 -0.446927,-0.628735 -0.65625,-1.15625 -0.315185,-0.794299 -0.391739,-1.676826 -0.40625,-2.53125 -0.03829,-2.25477 -0.293822,-4.566999 -2.125,-6 -0.864782,-0.676741 -2.213136,-0.931548 -3.40625,-0.875 z"
       id="path4055"
       inkscape:connector-curvature="0"
       sodipodi:nodetypes="sssssssssscscsssccsscsssccsssssscscsssccccsccccccccscssssssccccsccssssssss" />
    <path
       style="fill:#f7c700;fill-opacity:1;stroke:none;stroke-width:0.5;stroke-miterlimit:4;stroke-dasharray:none;stroke-opacity:0.997059;paint-order:markers stroke fill"
       d="m 8.4026712,22.383757 c -0.06658,0.0011 -0.128106,0.01718 -0.28125,0.1875 -0.204686,0.227648 -0.557237,0.92115 -0.90625,1.375 -0.698467,0.738652 -1.721061,0.764295 -2.503466,0.944432 -0.214548,0.0494 -0.363075,0.240947 -0.309034,0.493068 0.199391,0.930224 0.166737,1.505737 0.125,2.3125 -0.02642,0.510616 -0.159742,0.781275 -0.195313,1.28125 -0.09227,0.288803 0.153926,0.399693 0.351563,0.414062 1.076418,0.326832 1.980319,0.535809 3.0625,0.804688 1.082181,0.268879 2.028201,0.511035 2.7187498,0.875 0.786886,0.414742 1.278939,0.439952 1.874999,0.21875 0.531207,-0.197135 1.054975,-0.784485 1.125,-1.28125 0.07624,-0.540885 -0.03633,-0.714452 -0.3125,-1.125 -1.435209,-2.133566 -2.015371,-3.405889 -3.4687488,-5.46875 -0.287558,-0.408146 -0.57781,-0.707342 -1.03125,-0.96875 -0.04436,-0.02557 -0.143336,-0.06423 -0.25,-0.0625 z"
       id="path4121"
       inkscape:connector-curvature="0"
       sodipodi:nodetypes="cscsssccsssssscc" />
    <path
       style="fill:#f7c700;fill-opacity:1;stroke:none;stroke-width:0.5;stroke-miterlimit:4;stroke-dasharray:none;stroke-opacity:0.997059;paint-order:markers stroke fill"
       d="m 22.40267,22.977507 c -0.203599,-0.0079 -0.352255,0.02865 -0.40625,0.0625 -0.054,0.03385 -0.06713,0.03093 -0.0625,0.25 0.02046,0.967628 0.05169,2.258019 0,3.40625 -0.06488,1.441158 -0.608123,2.763856 -0.375,3.90625 0.05147,0.252248 0.141387,0.44021 0.3125,0.59375 0.171113,0.15354 0.470697,0.282569 0.96875,0.34375 1.129633,0.138765 1.870231,-0.416148 2.5625,-1.15625 0.760312,-0.812846 1.632735,-1.318407 2.5,-1.78125 0.725314,-0.387087 1.241368,-0.498152 1.78125,-1.09375 0.07519,-0.08295 0.126236,-0.201017 0.125,-0.28125 -0.0012,-0.08023 -0.009,-0.129844 -0.15625,-0.21875 -1.360052,-0.821101 -2.302188,-1.886887 -2.3125,-3.125 -0.0023,-0.27636 0.0059,-0.334045 0,-0.5 -0.0031,-0.0886 -0.147106,-0.140325 -0.21875,-0.03125 -0.117957,0.179585 -0.292597,0.501397 -0.53125,0.78125 -0.470902,0.552196 -1.016064,0.794945 -1.5,0.875 -0.483936,0.08006 -0.89434,0.0061 -1.125,-0.0625 -0.794538,-0.236454 -1.176088,-0.846547 -1.25,-1.375 -0.03794,-0.271285 0.02818,-0.395466 0.0625,-0.59375 -0.125727,-0.0048 -0.08168,0.01138 -0.375,0 z"
       id="path4123"
       inkscape:connector-curvature="0"
       sodipodi:nodetypes="scsscsssssccssssscccs" />
    <path
       style="fill:#ffffff;fill-opacity:1;stroke:none;stroke-width:1px;stroke-linecap:butt;stroke-linejoin:miter;stroke-opacity:1"
       d="m 13.764515,10.5625 c 0,0 0.224762,1.325714 -0.150889,2.297985 -1.038563,0.30936 -1.626189,3.994797 -2.37749,4.87868 -0.53033,0.905981 -1.03033,3.065641 -0.919845,5.231155 0,0 1.751078,5.224763 5.618068,5.379442 1.502602,-0.243068 5.789688,-1.110233 5.731044,-5.588388 0.994369,-0.176777 1.474874,-4.157059 -0.292893,-7.073874 -0.729204,-2.077126 -2.258233,-5.129442 -2.258233,-5.129442 0,0 -1.754981,1.628792 -3.191292,1.606694 -1.392116,0.0221 -2.15847,-1.602252 -2.15847,-1.602252 z"
       id="path845"
       sodipodi:nodetypes="cccccccccc" />
  </g>
</svg>
